# xmcd
#
# Track frame offsets:
#	182
#	19802
#	38597
#
# Disc length: 762 seconds
#
# Revision: 1
# Processed by: cddbd v1.5.1PL2 Copyright (c) Steve Scherf et al.
# Submitted via: EasyCDDAExtractor 5.0.6
#
DISCID=1802f803
DTITLE=Mona Lisa - Just Wanna Please U
DYEAR=1996
DGENRE=Country
TTITLE0=Just Wanna Please U (Album Ver.)
TTITLE1=Just Wanna Please U (Stevie J Ver.)
TTITLE2=Fade
EXTD=YEAR: 1996
EXTT0=
EXTT1=
EXTT2=
PLAYORDER=
